# xmcd
#
# Track frame offsets:
#	150
#	12619
#	25940
#	39186
#	50479
#	63489
#	77512
#	90039
#	103625
#	116371
#	124604
#	133663
#	144595
#	154725
#
# Disc length: 2330 seconds
#
# Revision: 0
# Processed by: cddbd v1.5.2PL0 Copyright (c) Steve Scherf et al.
# Submitted via: dBpowerAMP V4.0
#
DISCID=a909180e
DTITLE=panda tweak - aunque nadie nos crea
DYEAR=2005
DGENRE=
TTITLE0=el aeroplano
TTITLE1=como vas?
TTITLE2=nunca lo lograras
TTITLE3=anclado y desbordados (caballo de mar)
TTITLE4=sin orejas
TTITLE5=años de tu vida
TTITLE6=esperando (la señal)
TTITLE7=indiferencia
TTITLE8=anticlimax
TTITLE9=0 lugar
TTITLE10=hacia el sol
TTITLE11=los indios de dallas
TTITLE12=mi apariencia
TTITLE13=rock del borracho
EXTD=
EXTT0=
EXTT1=
EXTT2=
EXTT3=
EXTT4=
EXTT5=
EXTT6=
EXTT7=
EXTT8=
EXTT9=
EXTT10=
EXTT11=
EXTT12=
EXTT13=
PLAYORDER=
